<svg width="16" height="17" viewBox="0 0 16 17" fill="none" xmlns="http://www.w3.org/2000/svg">
<path d="M8.70015 11.3333H7.44684C6.56017 11.3333 5.8335 10.5867 5.8335 9.66666C5.8335 9.39332 6.06016 9.16666 6.3335 9.16666C6.60683 9.16666 6.8335 9.39332 6.8335 9.66666C6.8335 10.0333 7.10684 10.3333 7.44684 10.3333H8.70015C8.96015 10.3333 9.16683 10.1 9.16683 9.81332C9.16683 9.45332 9.06684 9.39999 8.84017 9.31999L6.8335 8.61999C6.40683 8.47332 5.8335 8.15999 5.8335 7.17999C5.8335 6.34666 6.4935 5.65999 7.30017 5.65999H8.55349C9.44015 5.65999 10.1668 6.40666 10.1668 7.32666C10.1668 7.59999 9.94016 7.82666 9.66683 7.82666C9.3935 7.82666 9.16683 7.59999 9.16683 7.32666C9.16683 6.95999 8.89349 6.65999 8.55349 6.65999H7.30017C7.04017 6.65999 6.8335 6.89333 6.8335 7.17999C6.8335 7.53999 6.93349 7.59332 7.16016 7.67332L9.16683 8.37332C9.5935 8.51999 10.1668 8.83332 10.1668 9.81332C10.1668 10.6533 9.50682 11.3333 8.70015 11.3333Z" fill="white"/>
<path d="M8 12C7.72667 12 7.5 11.7733 7.5 11.5V5.5C7.5 5.22667 7.72667 5 8 5C8.27333 5 8.5 5.22667 8.5 5.5V11.5C8.5 11.7733 8.27333 12 8 12Z" fill="white"/>
<path d="M8.00016 15.6667C4.04683 15.6667 0.833496 12.4533 0.833496 8.5C0.833496 4.54667 4.04683 1.33333 8.00016 1.33333C8.2735 1.33333 8.50016 1.56 8.50016 1.83333C8.50016 2.10667 8.2735 2.33333 8.00016 2.33333C4.60016 2.33333 1.8335 5.1 1.8335 8.5C1.8335 11.9 4.60016 14.6667 8.00016 14.6667C11.4002 14.6667 14.1668 11.9 14.1668 8.5C14.1668 8.22667 14.3935 8 14.6668 8C14.9402 8 15.1668 8.22667 15.1668 8.5C15.1668 12.4533 11.9535 15.6667 8.00016 15.6667Z" fill="white"/>
<path d="M14.0002 5.66667H11.3335C11.0602 5.66667 10.8335 5.44 10.8335 5.16667V2.5C10.8335 2.22667 11.0602 2 11.3335 2C11.6068 2 11.8335 2.22667 11.8335 2.5V4.66667H14.0002C14.2735 4.66667 14.5002 4.89333 14.5002 5.16667C14.5002 5.44 14.2735 5.66667 14.0002 5.66667Z" fill="white"/>
<path d="M11.3333 5.66667C11.2066 5.66667 11.08 5.62 10.98 5.52C10.7866 5.32667 10.7866 5.00667 10.98 4.81334L14.3133 1.48C14.5066 1.28667 14.8266 1.28667 15.02 1.48C15.2133 1.67334 15.2133 1.99333 15.02 2.18667L11.6866 5.52C11.5866 5.62 11.46 5.66667 11.3333 5.66667Z" fill="white"/>
</svg>
