<svg width="26" height="26" viewBox="0 0 26 26" fill="none" xmlns="http://www.w3.org/2000/svg">
<rect width="26" height="26" rx="13" fill="#E44848" fill-opacity="0.2"/>
<path d="M15.3373 15.0641C14.8852 15.0641 14.5104 14.6892 14.5104 14.2372V10.6539H10.927C10.475 10.6539 10.1001 10.279 10.1001 9.82693C10.1001 9.37487 10.475 9 10.927 9H15.3373C15.7893 9 16.1642 9.37487 16.1642 9.82693V14.2372C16.1642 14.6892 15.7893 15.0641 15.3373 15.0641Z" fill="#E44848"/>
<path d="M9.82417 16.1667C9.61468 16.1667 9.40519 16.0895 9.23981 15.9241C8.92006 15.6044 8.92006 15.0751 9.23981 14.7554L14.7526 9.24255C15.0724 8.92281 15.6016 8.92281 15.9214 9.24255C16.2411 9.5623 16.2411 10.0915 15.9214 10.4113L10.4085 15.9241C10.2431 16.0895 10.0337 16.1667 9.82417 16.1667Z" fill="#E44848"/>
</svg>
