<svg width="40" height="40" viewBox="0 0 40 40" fill="none" xmlns="http://www.w3.org/2000/svg">
<rect x="0.5" y="0.5" width="39" height="39" stroke="#D6DDEB"/>
<g clip-path="url(#clip0_358_3314)">
<path fill-rule="evenodd" clip-rule="evenodd" d="M20 12C20.5523 12 21 12.4477 21 13V27C21 27.5523 20.5523 28 20 28C19.4477 28 19 27.5523 19 27V13C19 12.4477 19.4477 12 20 12Z" fill="#5DA969"/>
<path fill-rule="evenodd" clip-rule="evenodd" d="M12 20C12 19.4477 12.4477 19 13 19H27C27.5523 19 28 19.4477 28 20C28 20.5523 27.5523 21 27 21H13C12.4477 21 12 20.5523 12 20Z" fill="#5DA969"/>
</g>
<defs>
<clipPath id="clip0_358_3314">
<rect width="24" height="24" fill="white" transform="translate(8 8)"/>
</clipPath>
</defs>
</svg>
