<svg width="44" height="44" viewBox="0 0 44 44" fill="none" xmlns="http://www.w3.org/2000/svg">
<rect width="44" height="44" rx="12" fill="#E9EFF5"/>
<path d="M22 22.75C18.83 22.75 16.25 20.17 16.25 17C16.25 13.83 18.83 11.25 22 11.25C25.17 11.25 27.75 13.83 27.75 17C27.75 20.17 25.17 22.75 22 22.75ZM22 12.75C19.66 12.75 17.75 14.66 17.75 17C17.75 19.34 19.66 21.25 22 21.25C24.34 21.25 26.25 19.34 26.25 17C26.25 14.66 24.34 12.75 22 12.75Z" fill="#2E3033"/>
<path d="M25.8201 32.75C25.4401 32.75 25.0801 32.61 24.8201 32.35C24.5101 32.04 24.3701 31.59 24.4401 31.12L24.6301 29.77C24.6801 29.42 24.8901 29.01 25.1401 28.75L28.68 25.21C30.1 23.79 31.3501 24.6 31.9601 25.21C32.4801 25.73 32.7501 26.29 32.7501 26.85C32.7501 27.42 32.4901 27.95 31.9601 28.48L28.42 32.02C28.17 32.27 27.7501 32.48 27.4001 32.53L26.05 32.72C25.97 32.74 25.9001 32.75 25.8201 32.75ZM30.31 25.92C30.13 25.92 29.97 26.04 29.74 26.27L26.2001 29.81C26.1701 29.84 26.12 29.94 26.12 29.98L25.9401 31.23L27.1901 31.05C27.2301 31.04 27.33 30.99 27.36 30.96L30.9001 27.42C31.0601 27.26 31.2501 27.03 31.2501 26.85C31.2501 26.7 31.1301 26.49 30.9001 26.27C30.6601 26.03 30.48 25.92 30.31 25.92Z" fill="#2E3033"/>
<path d="M30.9201 29.22C30.8501 29.22 30.7801 29.21 30.7201 29.19C29.4001 28.82 28.3501 27.77 27.9801 26.45C27.8701 26.05 28.1001 25.64 28.5001 25.53C28.9001 25.42 29.3101 25.65 29.4201 26.05C29.6501 26.87 30.3001 27.52 31.1201 27.75C31.5201 27.86 31.7501 28.28 31.6401 28.67C31.5501 29 31.2501 29.22 30.9201 29.22Z" fill="#2E3033"/>
<path d="M13.4102 32.75C13.0002 32.75 12.6602 32.41 12.6602 32C12.6602 27.73 16.8502 24.25 22.0002 24.25C23.0902 24.25 24.1702 24.41 25.1802 24.71C25.5802 24.83 25.8002 25.25 25.6802 25.64C25.5602 26.04 25.1402 26.26 24.7502 26.14C23.8702 25.88 22.9502 25.74 22.0002 25.74C17.6802 25.74 14.1602 28.54 14.1602 31.99C14.1602 32.41 13.8202 32.75 13.4102 32.75Z" fill="#2E3033"/>
</svg>
