<svg width="26" height="26" viewBox="0 0 26 26" fill="none" xmlns="http://www.w3.org/2000/svg">
<rect width="26" height="26" rx="13" fill="#00A478" fill-opacity="0.2"/>
<path d="M10.6627 10.9359C11.1148 10.9359 11.4896 11.3108 11.4896 11.7628V15.3461H15.073C15.525 15.3461 15.8999 15.721 15.8999 16.1731C15.8999 16.6251 15.525 17 15.073 17H10.6627C10.2107 17 9.83578 16.6251 9.83578 16.1731V11.7628C9.83578 11.3108 10.2107 10.9359 10.6627 10.9359Z" fill="#39A798"/>
<path d="M16.1758 9.83333C16.3853 9.83333 16.5948 9.91051 16.7602 10.0759C17.0799 10.3956 17.0799 10.9249 16.7602 11.2446L11.2474 16.7574C10.9276 17.0772 10.3984 17.0772 10.0786 16.7574C9.75889 16.4377 9.75889 15.9085 10.0786 15.5887L15.5915 10.0759C15.7569 9.91051 15.9663 9.83333 16.1758 9.83333Z" fill="#39A798"/>
</svg>
