<svg width="44" height="44" viewBox="0 0 44 44" fill="none" xmlns="http://www.w3.org/2000/svg">
<rect width="44" height="44" rx="12" fill="#E9EFF5"/>
<path d="M21.9998 32.7501C21.7598 32.7501 21.5199 32.7201 21.2899 32.6501C16.0999 31.2201 12.3398 26.37 12.3398 21.11V16.72C12.3398 15.6 13.1498 14.3901 14.1898 13.9601L19.7599 11.68C21.2099 11.09 22.7998 11.09 24.2398 11.68L29.8098 13.9601C30.8498 14.3901 31.6599 15.6 31.6599 16.72V21.11C31.6599 26.36 27.8898 31.2101 22.7098 32.6501C22.4798 32.7201 22.2398 32.7501 21.9998 32.7501ZM21.9998 12.7501C21.4298 12.7501 20.8698 12.8601 20.3298 13.0801L14.7599 15.36C14.2799 15.56 13.8398 16.21 13.8398 16.73V21.1201C13.8398 25.7101 17.1398 29.9501 21.6898 31.2101C21.8898 31.2701 22.1098 31.2701 22.3098 31.2101C26.8598 29.9501 30.1599 25.7101 30.1599 21.1201V16.73C30.1599 16.21 29.7198 15.56 29.2398 15.36L23.6699 13.0801C23.1299 12.8601 22.5698 12.7501 21.9998 12.7501Z" fill="#2E3033"/>
<path d="M22 23.25C20.48 23.25 19.25 22.02 19.25 20.5C19.25 18.98 20.48 17.75 22 17.75C23.52 17.75 24.75 18.98 24.75 20.5C24.75 22.02 23.52 23.25 22 23.25ZM22 19.25C21.31 19.25 20.75 19.81 20.75 20.5C20.75 21.19 21.31 21.75 22 21.75C22.69 21.75 23.25 21.19 23.25 20.5C23.25 19.81 22.69 19.25 22 19.25Z" fill="#2E3033"/>
<path d="M22 26.25C21.59 26.25 21.25 25.91 21.25 25.5V22.5C21.25 22.09 21.59 21.75 22 21.75C22.41 21.75 22.75 22.09 22.75 22.5V25.5C22.75 25.91 22.41 26.25 22 26.25Z" fill="#2E3033"/>
</svg>
